<?xml version="1.0"?>
<svg xmlns:rdf="http://www.w3.org/1999/02/22-rdf-syntax-ns#" xmlns="http://www.w3.org/2000/svg" xmlns:cc="http://web.resource.org/cc/" xmlns:dc="http://purl.org/dc/elements/1.1/" xmlns:svg="http://www.w3.org/2000/svg" id="svg14350" viewBox="0 0 150.26 150.26" version="1.0">
  <g id="layer1" transform="translate(-274.87 -457.23)">
    <g id="g10762" transform="translate(261.39 -29.261)">
      <rect id="rect9066" transform="rotate(45)" ry="5.266" height="106.68" width="106.68" stroke="#000" y="281.14" x="406.44" stroke-width="3.7488" fill="#ff0"/>
      <g id="g10746" transform="matrix(.74210 0 0 .74210 -155.87 -11.629)">
        <path id="path10748" d="m316.33 806.27l-0.31-20.79-7.31-10.23c-4.02-5.63-7.95-11.79-8.75-13.69-1.1-2.63-1.44-8.43-1.44-24.48v-21.03h19.89l0.31 20.75 0.3 20.75 4.62 6.8 4.63 6.8 3.82-5.3c5.94-8.24 6.34-10.19 6.39-31.05l0.04-18.75h19.11l-0.31 23.25-0.3 23.25-5.5 7.76c-3.02 4.28-6.85 9.86-8.5 12.42l-3 4.66-0.31 19.83-0.3 19.83h-22.78l-0.3-20.78z"/>
      </g>
    </g>
  </g>
  <metadata>
    <rdf:RDF>
      <cc:Work>
        <dc:format>image/svg+xml</dc:format>
        <dc:type rdf:resource="http://purl.org/dc/dcmitype/StillImage"/>
        <cc:license rdf:resource="http://creativecommons.org/licenses/publicdomain/"/>
        <dc:publisher>
          <cc:Agent rdf:about="http://openclipart.org/">
            <dc:title>Openclipart</dc:title>
          </cc:Agent>
        </dc:publisher>
        <dc:title>caution_fork in road</dc:title>
        <dc:date>2007-10-19T23:49:36</dc:date>
        <dc:description>clip art, clipart, image, media, public domain, roadsign, roadsign, sign, sign, svg, traffic, traffic, </dc:description>
        <dc:source>http://openclipart.org/detail/7227/caution_fork-in-road-by-leomarc</dc:source>
        <dc:creator>
          <cc:Agent>
            <dc:title>Leomarc</dc:title>
          </cc:Agent>
        </dc:creator>
        <dc:subject>
          <rdf:Bag>
            <rdf:li>clip art</rdf:li>
            <rdf:li>clipart</rdf:li>
            <rdf:li>image</rdf:li>
            <rdf:li>media</rdf:li>
            <rdf:li>public domain</rdf:li>
            <rdf:li>roadsign</rdf:li>
            <rdf:li>sign</rdf:li>
            <rdf:li>svg</rdf:li>
            <rdf:li>traffic</rdf:li>
          </rdf:Bag>
        </dc:subject>
      </cc:Work>
      <cc:License rdf:about="http://creativecommons.org/licenses/publicdomain/">
        <cc:permits rdf:resource="http://creativecommons.org/ns#Reproduction"/>
        <cc:permits rdf:resource="http://creativecommons.org/ns#Distribution"/>
        <cc:permits rdf:resource="http://creativecommons.org/ns#DerivativeWorks"/>
      </cc:License>
    </rdf:RDF>
  </metadata>
</svg>
